<?xml version="1.0" encoding="iso-8859-1"?>
<!-- Generator: Adobe Illustrator 19.0.0, SVG Export Plug-In . SVG Version: 6.00 Build 0)  -->
<svg version="1.1" id="Capa_1" xmlns="http://www.w3.org/2000/svg" xmlns:xlink="http://www.w3.org/1999/xlink" x="0px" y="0px"
	 viewBox="0 0 512 512" style="enable-background:new 0 0 512 512;" xml:space="preserve">
<circle style="fill:#208673;" cx="256" cy="256" r="34.13"/>
<path style="fill:#289F87;" d="M256,221.868c-9.899,0-18.739,4.275-24.969,11.008c-1.621,8.951,0.239,18.509,6.093,26.394
	c11.23,15.138,32.606,18.313,47.753,7.074c1.724-1.28,3.243-2.722,4.651-4.233c0.35-1.98,0.606-4.011,0.606-6.11
	C290.133,237.151,274.85,221.868,256,221.868z"/>
<path style="fill:#EA6B65;" d="M256,349.868c-125.841,0-256-35.115-256-93.867s130.159-93.867,256-93.867
	c65.775,0,128.068,8.755,175.394,24.653c0.316,0.102,0.631,0.23,0.93,0.375l49.203,23.287c0.427,0.196,0.836,0.435,1.229,0.708
	C502.161,224.667,512,239.754,512,256.001C512,314.753,381.841,349.868,256,349.868z M256,179.201
	c-113.007,0-238.933,31.539-238.933,76.8s125.926,76.8,238.933,76.8s238.933-31.539,238.933-76.8
	c0-12.621-11.486-23.45-21.367-30.43l-48.085-22.767C379.913,187.589,319.761,179.201,256,179.201z"/>
<path style="fill:#F7BA61;" d="M363,483.099c-53.222,0-133.222-84.787-188.288-180.164c-33.007-57.19-56.61-115.686-66.449-164.719
	c-0.06-0.307-0.111-0.614-0.137-0.922l-4.523-51.123c-0.043-0.427-0.043-0.853-0.017-1.28c1.929-31.283,14.345-44.774,24.414-50.594
	c50.85-29.38,146.364,65.792,209.289,174.771c33.51,58.044,57.242,117.239,66.833,166.682
	c10.155,52.386,3.021,88.593-20.122,101.956C377.651,481.375,370.594,483.099,363,483.099z M125.082,135.314
	c9.54,47.172,32.401,103.646,64.41,159.087C246,392.278,336.317,485.565,375.467,462.926c16.111-9.293,20.446-39.885,11.904-83.925
	c-9.233-47.633-32.265-104.943-64.862-161.399C266.001,119.724,175.693,26.463,136.533,49.085
	c-11.503,6.639-14.993,23.228-15.872,36.233L125.082,135.314z"/>
<circle style="fill:#D68F29;" cx="110.93" cy="110.94" r="25.6"/>
<path style="fill:#EA9D2D;" d="M93.867,128.001c0,0.708,0.154,1.365,0.205,2.065c4.514,3.977,10.368,6.468,16.862,6.468
	c14.14,0,25.6-11.46,25.6-25.6c0-0.708-0.154-1.365-0.205-2.065c-4.514-3.977-10.377-6.468-16.862-6.468
	C105.327,102.401,93.867,113.861,93.867,128.001z"/>
<circle style="fill:#C7463B;" cx="452.27" cy="204.8" r="25.6"/>
<path style="fill:#DC4D41;" d="M452.267,179.201c-4.873,0-9.387,1.434-13.261,3.806c-2.372,3.874-3.806,8.388-3.806,13.261
	c0,14.14,11.46,25.6,25.6,25.6c4.873,0,9.387-1.434,13.261-3.806c2.372-3.874,3.806-8.38,3.806-13.261
	C477.867,190.661,466.406,179.201,452.267,179.201z"/>
<path style="fill:#8ACED8;" d="M149.001,483.099c-7.603,0-14.643-1.724-21.001-5.393c-11.273-6.511-24.713-22.135-24.678-59.58
	c0-0.358,0.026-0.708,0.068-1.067l6.357-50.133c0.034-0.265,0.085-0.529,0.145-0.802c10.667-47.343,33.681-103.117,64.819-157.056
	C237.628,100.08,333.09,4.951,384,34.297c23.142,13.355,30.285,49.57,20.122,101.956c-9.591,49.442-33.323,108.638-66.833,166.682
	C282.232,398.303,202.223,483.099,149.001,483.099z M120.388,418.672c0.043,16.094,2.918,36.617,16.145,44.254
	c39.228,22.63,129.476-70.647,185.975-168.525c32.589-56.448,55.629-113.766,64.862-161.399
	c8.542-44.032,4.207-74.624-11.904-83.917C336.256,26.42,245.99,119.732,189.491,217.61
	c-30.217,52.326-52.523,106.249-62.857,151.876L120.388,418.672z"/>
<circle style="fill:#1F6C8C;" cx="110.93" cy="392.54" r="25.6"/>
<path style="fill:#3B869E;" d="M110.933,366.935c-4.873,0-9.387,1.434-13.261,3.806c-2.372,3.874-3.806,8.388-3.806,13.261
	c0,14.14,11.46,25.6,25.6,25.6c4.873,0,9.387-1.434,13.261-3.806c2.372-3.874,3.806-8.38,3.806-13.261
	C136.533,378.395,125.073,366.935,110.933,366.935z"/>
<g>
</g>
<g>
</g>
<g>
</g>
<g>
</g>
<g>
</g>
<g>
</g>
<g>
</g>
<g>
</g>
<g>
</g>
<g>
</g>
<g>
</g>
<g>
</g>
<g>
</g>
<g>
</g>
<g>
</g>
</svg>
