<?xml version="1.0" encoding="utf-8"?>
<!-- Generator: Adobe Illustrator 19.0.0, SVG Export Plug-In . SVG Version: 6.00 Build 0)  -->
<svg xmlns="http://www.w3.org/2000/svg" xmlns:xlink="http://www.w3.org/1999/xlink" version="1.1" id="Layer_1" x="0px" y="0px" viewBox="0 2 98 98" style="enable-background:new 0 2 98 98;" xml:space="preserve" width="512" height="512">
<style type="text/css">
	.st0{fill:url(#SVGID_1_);}
	.st1{fill:url(#SVGID_2_);}
</style>
<g>
	<linearGradient id="SVGID_1_" gradientUnits="userSpaceOnUse" x1="49" y1="6.55" x2="49" y2="95.5588">
		<stop offset="0" style="stop-color:#00EFD1"/>
		<stop offset="1" style="stop-color:#00ACEA"/>
	</linearGradient>
	<path class="st0" d="M80.9,51c4.3-4.7,7.3-9.4,8.4-13.5c0.9-3.4,0.6-6.5-0.8-9c-3.6-6.2-12.8-7.1-23.5-4.8C61.6,13.3,56.3,6,49,6   c-6.7,0-12.4,6.8-16,17.8c-1.3-0.3-2.5-0.5-3.8-0.7c-9.8-1.4-16.9,0.5-19.7,5.5c-1.4,2.5-1.7,5.6-0.8,9c1.1,4.2,4.1,8.8,8.4,13.5   c-4.3,4.7-7.3,9.4-8.4,13.5c-0.9,3.4-0.6,6.5,0.8,9c2.3,3.9,7.1,5.9,13.8,5.9c1.8,0,3.8-0.2,5.9-0.5c1.2-0.2,2.5-0.4,3.8-0.7   c3.5,11,9.3,17.8,16,17.8c7.3,0,12.6-7.4,15.9-17.8c3.5,0.8,6.8,1.2,9.9,1.2c6.3,0,11.2-1.8,13.7-6c1.4-2.4,1.7-5.5,0.8-8.9   C88.2,60.3,85.2,55.8,80.9,51z M14.7,70.5c-0.6-1.1-0.7-2.6-0.2-4.4c0.8-2.9,3.1-6.7,6.8-10.9c2.5,2.3,5.4,4.6,8.4,6.8   c0.4,3.7,0.9,7.2,1.7,10.5C22.8,74.3,16.5,73.6,14.7,70.5z M25.5,51c1.1-1,2.4-2.1,3.7-3.1c0,1,0,2.1,0,3.1c0,1.1,0,2.1,0,3.1   C27.9,53,26.7,52,25.5,51z M29.7,40c-3.1,2.2-5.9,4.5-8.4,6.8c-3.8-4.1-6-7.9-6.8-10.9c-0.5-1.8-0.4-3.3,0.2-4.4c1.1-2,4.2-3,8.4-3   c2.4,0,5.2,0.3,8.3,1C30.7,32.8,30.1,36.3,29.7,40z M61.6,35.5c-0.9-0.5-1.8-1.1-2.7-1.6c-0.9-0.4-1.8-0.9-2.7-1.4   c1.5-0.6,3.1-1.1,4.5-1.6C61,32.5,61.3,34,61.6,35.5z M39.9,22.5c2.6-6.6,6-10.5,9.1-10.5s6.5,3.9,9.1,10.4   c0.4,0.9,0.7,1.9,1.1,2.9c-3.3,1-6.7,2.3-10.1,3.8c-3.4-1.5-6.9-2.8-10.2-3.8C39.2,24.2,39.5,23.3,39.9,22.5z M37.3,31   c1.5,0.4,2.9,1,4.5,1.5c-0.9,0.5-1.8,1-2.7,1.5c-0.9,0.5-1.8,1.1-2.7,1.6C36.7,34,37,32.5,37.3,31z M36.4,66.5   c0.9,0.5,1.8,1.1,2.7,1.6c0.9,0.5,1.8,1,2.7,1.5c-1.5,0.6-3,1.1-4.5,1.5C37,69.5,36.7,68,36.4,66.5z M58.1,79.8   c-2.6,6.5-6,10.4-9.1,10.4s-6.5-3.9-9.1-10.5c-0.4-0.9-0.7-1.9-1-2.9c3.3-1,6.7-2.3,10.2-3.8c3.4,1.5,6.8,2.8,10.1,3.8   C58.8,77.8,58.5,78.8,58.1,79.8z M60.7,71c-1.5-0.5-3-1-4.5-1.6c0.9-0.5,1.8-1,2.7-1.5c0.9-0.4,1.8-1,2.7-1.5   C61.3,68,61,69.5,60.7,71z M62.5,58.8c-2,1.4-4.2,2.8-6.6,4.1c-2.3,1.3-4.7,2.5-6.9,3.6c-2.3-1.1-4.6-2.3-6.9-3.6   c-2.4-1.3-4.5-2.7-6.6-4.1c-0.2-2.5-0.3-5.1-0.3-7.7s0.1-5.2,0.3-7.7c2.1-1.4,4.2-2.7,6.6-4.1c2.3-1.3,4.6-2.5,6.9-3.6   c2.3,1.1,4.6,2.3,6.9,3.6c2.4,1.3,4.5,2.7,6.6,4.1c0.2,2.5,0.3,5.1,0.3,7.7S62.7,56.2,62.5,58.8z M74.8,28.5c4.3,0,7.4,1.1,8.6,3.1   c0.6,1.1,0.7,2.6,0.2,4.4c-0.8,2.9-3.1,6.7-6.8,10.9c-2.5-2.3-5.4-4.6-8.5-6.8c-0.4-3.6-1-7.2-1.7-10.5   C69.6,28.8,72.4,28.5,74.8,28.5z M68.7,48C70,49,71.2,50,72.4,51c-1.1,1-2.4,2.1-3.7,3.1c0-1.1,0.1-2.1,0.1-3.1S68.8,49,68.7,48z    M83.3,70.5c-1.8,3.1-8.1,3.9-16.8,2.1c0.8-3.4,1.3-6.9,1.7-10.5c3.1-2.2,5.9-4.5,8.5-6.8c3.8,4.1,6,7.9,6.8,10.9   C84,68,83.9,69.5,83.3,70.5z"/>
	<linearGradient id="SVGID_2_" gradientUnits="userSpaceOnUse" x1="49" y1="6.55" x2="49" y2="95.5588">
		<stop offset="0" style="stop-color:#00EFD1"/>
		<stop offset="1" style="stop-color:#00ACEA"/>
	</linearGradient>
	<path class="st1" d="M49,42c-5,0-9,4-9,9s4,9,9,9s9-4,9-9S54,42,49,42z M49,54c-1.7,0-3-1.3-3-3s1.3-3,3-3s3,1.3,3,3S50.7,54,49,54   z"/>
</g>
</svg>
