<?xml version="1.0" encoding="iso-8859-1"?>
<!-- Generator: Adobe Illustrator 19.0.0, SVG Export Plug-In . SVG Version: 6.00 Build 0)  -->
<svg version="1.1" id="Capa_1" xmlns="http://www.w3.org/2000/svg" xmlns:xlink="http://www.w3.org/1999/xlink" x="0px" y="0px"
	 viewBox="0 0 470.727 470.727" style="enable-background:new 0 0 470.727 470.727;" xml:space="preserve">
<path style="fill:#4DCFE0;" d="M445.91,306.155c-5.747-21.943-21.42-45.975-43.886-70.531c22.465-24.555,38.139-49.11,43.886-70.531
	c4.702-17.763,3.135-33.959-4.18-47.02l0,0c-18.808-32.392-66.873-37.094-122.776-25.078C301.192,38.661,273.502,0,235.363,0
	c-35.004,0-64.784,35.527-83.592,92.996c-6.792-1.567-13.061-2.612-19.853-3.657c-51.2-7.314-88.294,2.612-102.922,28.735
	c-7.314,13.061-8.882,29.257-4.18,47.02c5.747,21.943,21.42,45.976,43.886,70.531c-22.465,24.555-38.139,49.11-43.886,70.531
	c-4.702,17.763-3.135,33.959,4.18,47.02C41.012,373.551,66.09,384,101.094,384c9.404,0,19.853-1.045,30.824-2.612
	c6.269-1.045,13.061-2.09,19.853-3.657c18.286,57.469,48.588,92.996,83.592,92.996c38.139,0,65.829-38.661,83.069-92.996
	c18.286,4.18,35.527,6.269,51.722,6.269c32.914,0,58.514-9.404,71.576-31.347l0,0C449.045,340.114,450.612,323.918,445.91,306.155z
	 M370.155,118.073c22.465,0,38.661,5.747,44.931,16.196c3.135,5.747,3.657,13.584,1.045,22.988
	c-4.18,15.151-16.196,35.004-35.527,56.947c-13.061-12.016-28.212-24.033-44.408-35.527c-2.09-18.808-5.224-37.616-8.882-54.857
	C342.988,119.641,357.616,118.073,370.155,118.073z M271.412,297.273c-12.016,6.792-24.555,13.061-36.049,18.808
	c-12.016-5.747-24.033-12.016-36.049-18.808c-12.539-6.792-23.51-14.106-34.482-21.42c-1.045-13.061-1.567-26.645-1.567-40.229
	s0.522-27.167,1.567-40.229c10.971-7.314,21.943-14.106,34.482-21.42c12.016-6.792,24.033-13.061,36.049-18.808
	c12.016,5.747,24.033,12.016,36.049,18.808c12.539,6.792,23.51,14.106,34.482,21.42c1.045,13.061,1.567,26.645,1.567,40.229
	c0,13.584-0.522,27.167-1.567,40.229C295.445,283.167,283.951,290.482,271.412,297.273z M301.192,316.082
	c-1.567,8.359-3.135,16.196-4.702,24.033c-7.837-2.612-15.673-5.224-23.51-8.359c4.702-2.612,9.404-5.224,14.106-7.837
	C291.788,321.829,296.49,318.694,301.192,316.082z M197.747,332.278c-7.837,3.135-15.673,5.747-23.51,7.837
	c-1.567-7.837-3.135-15.673-4.702-24.033c4.702,2.612,9.404,5.747,14.106,8.359C188.343,327.053,193.045,329.665,197.747,332.278z
	 M131.918,251.82c-6.792-5.747-13.061-10.971-19.331-16.196c5.747-5.224,12.539-10.971,19.331-16.196c0,5.224,0,10.971,0,16.196
	C131.918,241.371,131.918,246.596,131.918,251.82z M169.535,155.167c1.567-8.359,3.135-16.196,4.702-24.033
	c7.837,2.09,15.151,5.225,23.51,7.837c-4.702,2.612-9.404,5.224-14.106,7.837C178.939,149.42,174.237,152.555,169.535,155.167z
	 M272.98,138.971c7.837-3.135,16.196-5.747,23.51-8.359c1.567,7.837,3.135,15.673,4.702,24.033
	c-4.702-2.612-9.404-5.747-14.106-8.359C282.384,144.196,277.682,141.584,272.98,138.971z M338.286,219.429
	c6.792,5.747,13.061,10.971,19.331,16.196c-5.747,5.224-12.539,10.971-19.331,16.196c0-5.747,0.522-10.971,0.522-16.196
	C338.808,230.4,338.808,224.653,338.286,219.429z M187.82,86.204c13.584-34.482,31.347-54.857,47.543-54.857
	s33.959,20.376,47.543,54.335c2.09,4.702,3.657,9.927,5.747,15.151c-17.241,5.224-35.004,12.016-52.767,19.853
	c-17.763-7.837-36.049-14.629-53.29-19.853C184.163,95.608,185.731,90.906,187.82,86.204z M56.163,133.747
	c5.747-10.449,21.943-15.673,43.886-15.673c12.539,0,27.167,1.567,43.363,5.224c-3.657,17.241-6.792,35.527-8.882,54.857
	c-16.196,11.494-30.824,23.51-43.886,35.527c-19.853-21.42-31.347-41.273-35.527-56.947
	C52.506,147.331,53.029,139.494,56.163,133.747z M56.163,337.502c-3.135-5.747-3.657-13.584-1.045-22.988
	c4.18-15.151,16.196-35.004,35.527-56.947c13.061,12.016,28.212,24.033,43.886,35.527c2.09,19.331,4.702,37.616,8.882,54.857
	C98.482,357.355,65.567,353.698,56.163,337.502z M282.906,385.567c-13.584,33.959-31.347,54.335-47.543,54.335
	s-33.959-20.376-47.543-54.857c-2.09-4.702-3.657-9.927-5.224-15.151c17.241-5.224,35.004-12.016,53.29-19.853
	c17.763,7.837,35.527,14.629,52.767,19.853C286.563,375.641,284.996,380.343,282.906,385.567z M414.563,337.502
	c-9.404,16.196-42.318,20.376-87.771,10.971c4.18-17.763,6.792-36.049,8.882-54.857c16.196-11.494,30.824-23.51,44.408-35.527
	c19.853,21.42,31.347,41.273,35.527,56.947C418.22,323.918,417.698,331.755,414.563,337.502z"/>
<path style="fill:#D4E1F4;" d="M235.363,188.604c-26.122,0-47.02,20.898-47.02,47.02s20.898,47.02,47.02,47.02
	c26.122,0,47.02-20.898,47.02-47.02S261.486,188.604,235.363,188.604z"/>
<g>
</g>
<g>
</g>
<g>
</g>
<g>
</g>
<g>
</g>
<g>
</g>
<g>
</g>
<g>
</g>
<g>
</g>
<g>
</g>
<g>
</g>
<g>
</g>
<g>
</g>
<g>
</g>
<g>
</g>
</svg>
